HIERARCHY
ROOT Hips
{
	OFFSET 0.00000 0.00000 0.00000
	CHANNELS 6 Xposition Yposition Zposition Zrotation Yrotation Xrotation 
	JOINT LHipJoint
	{
		OFFSET 0 0 0
		CHANNELS 3 Zrotation Yrotation Xrotation
		JOINT LeftUpLeg
		{
			OFFSET 1.84395 -1.68683 0.74144
			CHANNELS 3 Zrotation Yrotation Xrotation
			JOINT LeftLeg
			{
				OFFSET 2.27037 -6.23779 0.00000
				CHANNELS 3 Zrotation Yrotation Xrotation
				JOINT LeftFoot
				{
					OFFSET 2.56918 -7.05877 0.00000
					CHANNELS 3 Zrotation Yrotation Xrotation
					JOINT LeftToeBase
					{
						OFFSET 0.22276 -0.61202 1.71784
						CHANNELS 3 Zrotation Yrotation Xrotation
						End Site
						{
							OFFSET 0.00000 -0.00000 0.91613
						}
					}
				}
			}
		}
	}
	JOINT RHipJoint
	{
		OFFSET 0 0 0
		CHANNELS 3 Zrotation Yrotation Xrotation
		JOINT RightUpLeg
		{
			OFFSET -1.76833 -1.68684 0.74144
			CHANNELS 3 Zrotation Yrotation Xrotation
			JOINT RightLeg
			{
				OFFSET -2.49360 -6.85110 0.00000
				CHANNELS 3 Zrotation Yrotation Xrotation
				JOINT RightFoot
				{
					OFFSET -2.55538 -7.02085 0.00000
					CHANNELS 3 Zrotation Yrotation Xrotation
					JOINT RightToeBase
					{
						OFFSET -0.21516 -0.59115 1.68050
						CHANNELS 3 Zrotation Yrotation Xrotation
						End Site
						{
							OFFSET -0.00000 -0.00000 0.89604
						}
					}
				}
			}
		}
	}
	JOINT LowerBack
	{
		OFFSET 0 0 0
		CHANNELS 3 Zrotation Yrotation Xrotation
		JOINT Spine
		{
			OFFSET 0.06382 1.72312 -0.19613
			CHANNELS 3 Zrotation Yrotation Xrotation
			JOINT Spine1
			{
				OFFSET -0.00055 1.73507 0.23859
				CHANNELS 3 Zrotation Yrotation Xrotation
				JOINT Neck
				{
					OFFSET 0 0 0
					CHANNELS 3 Zrotation Yrotation Xrotation
					JOINT Neck1
					{
						OFFSET 0.03638 1.65562 0.09633
						CHANNELS 3 Zrotation Yrotation Xrotation
						JOINT Head
						{
							OFFSET 0.06388 1.62807 -0.32386
							CHANNELS 3 Zrotation Yrotation Xrotation
							End Site
							{
								OFFSET 0.00995 1.67644 -0.12021
							}
						}
					}
				}
				JOINT LeftShoulder
				{
					OFFSET 0 0 0
					CHANNELS 3 Zrotation Yrotation Xrotation
					JOINT LeftArm
					{
						OFFSET 3.09648 1.42991 0.28122
						CHANNELS 3 Zrotation Yrotation Xrotation
						JOINT LeftForeArm
						{
							OFFSET 5.11878 -0.00000 -0.00000
							CHANNELS 3 Zrotation Yrotation Xrotation
							JOINT LeftHand
							{
								OFFSET 3.59971 -0.00000 0.00000
								CHANNELS 3 Zrotation Yrotation Xrotation
								JOINT LeftFingerBase
								{
									OFFSET 0 0 0
									CHANNELS 3 Zrotation Yrotation Xrotation
									JOINT LeftHandIndex1
									{
										OFFSET 0.62877 -0.00000 0.00000
										CHANNELS 3 Zrotation Yrotation Xrotation
										End Site
										{
											OFFSET 0.50693 -0.00000 0.00000
										}
									}
								}
								JOINT LThumb
								{
									OFFSET 0 0 0
									CHANNELS 3 Zrotation Yrotation Xrotation
									End Site
									{
										OFFSET 0.51467 -0.00000 0.51467
									}
								}
							}
						}
					}
				}
				JOINT RightShoulder
				{
					OFFSET 0 0 0
					CHANNELS 3 Zrotation Yrotation Xrotation
					JOINT RightArm
					{
						OFFSET -3.33565 1.14597 0.05047
						CHANNELS 3 Zrotation Yrotation Xrotation
						JOINT RightForeArm
						{
							OFFSET -5.49020 -0.00000 0.00000
							CHANNELS 3 Zrotation Yrotation Xrotation
							JOINT RightHand
							{
								OFFSET -3.20659 -0.00000 -0.00000
								CHANNELS 3 Zrotation Yrotation Xrotation
								JOINT RightFingerBase
								{
									OFFSET 0 0 0
									CHANNELS 3 Zrotation Yrotation Xrotation
									JOINT RightHandIndex1
									{
										OFFSET -0.69188 -0.00000 0.00000
										CHANNELS 3 Zrotation Yrotation Xrotation
										End Site
										{
											OFFSET -0.55781 -0.00000 0.00000
										}
									}
								}
								JOINT RThumb
								{
									OFFSET 0 0 0
									CHANNELS 3 Zrotation Yrotation Xrotation
									End Site
									{
										OFFSET -0.56633 -0.00000 0.56633
									}
								}
							}
						}
					}
				}
			}
		}
	}
}
MOTION
Frames: 9
Frame Time: .0083333
-0.2317 17.5412 8.5225 -9.2027 5.7554 9.3042 0.0000 0.0000 0.0000 -10.9257 -36.5086 14.0258 0.0105 -0.6608 -1.8159 -5.2116 39.0243 -32.0442 0.0386 1.2675 3.4850 0.0000 0.0000 0.0000 26.4980 21.0930 1.7220 -0.1267 -2.2946 6.3206 0.0904 -16.1323 -21.9827 -0.0011 -0.2097 0.5762 6.5149 2.8565 1.7484 1.5471 4.6244 -10.6789 -2.4906 1.7115 -12.1629 -8.1936 -12.1545 -6.4540 16.4445 -17.5714 8.6783 4.9515 -8.0427 5.9062 -0.0000 -0.0000 0.0000 -89.8135 0.7181 -2.3307 29.1038 -40.1128 -10.8275 -0.0000 -0.0000 24.4420 45.0184 -29.7402 -26.3992 -7.1250 0.0000 -0.0000 7.7974 -8.6465 -8.9583 -0.0000 -0.0000 0.0000 60.2381 54.8122 -39.1701 -19.7777 30.3735 -5.4185 0.0000 0.0000 141.8420 -45.4298 -55.5340 39.9268 7.1250 -0.0000 -0.0000 155.6307 85.3796 157.6065
-0.2331 17.5398 8.5428 -9.2048 6.3584 9.0534 0.0000 0.0000 0.0000 -11.1219 -36.7357 14.3887 0.0109 -0.6734 -1.8505 -5.2081 38.9139 -31.6696 0.0249 1.0189 2.8009 0.0000 0.0000 0.0000 26.6793 20.7549 2.1497 -0.1187 -2.2210 6.1169 0.1182 -16.5015 -22.2434 -0.0015 -0.2512 0.6902 6.2524 2.8233 1.8301 1.4603 4.5573 -10.6622 -2.4381 1.6988 -12.2061 -8.1469 -12.3491 -6.3612 16.8950 -17.8315 8.1445 5.0623 -8.1697 5.8010 -0.0000 -0.0000 0.0000 -89.2270 2.1898 -3.3141 28.9250 -39.9539 -10.7125 -0.0000 -0.0000 23.5423 44.1913 -28.6058 -24.9597 -7.1250 0.0000 -0.0000 7.6577 -6.9803 -8.6045 -0.0000 -0.0000 0.0000 57.8620 52.4593 -45.8638 -19.2062 29.6741 -5.1325 0.0000 0.0000 140.3470 -49.8993 -59.3405 45.6096 7.1250 -0.0000 -0.0000 164.6265 80.6728 167.2852
-0.2350 17.5370 8.5627 -9.2198 6.8633 8.8447 0.0000 0.0000 0.0000 -11.1809 -36.7822 14.5409 0.0106 -0.6658 -1.8297 -5.2171 38.7682 -31.0512 0.0105 0.6611 1.8169 0.0000 0.0000 0.0000 26.8366 20.4025 2.4469 -0.1141 -2.1774 5.9961 0.1453 -16.8005 -22.4152 -0.0004 -0.1279 0.3513 5.9449 2.7009 1.8417 1.4877 4.3638 -10.5588 -2.2165 1.6420 -12.1262 -8.0639 -12.7637 -7.4317 16.5747 -18.4256 8.7600 4.7965 -8.3829 6.2117 -0.0000 -0.0000 0.0000 -88.7292 3.8635 -4.5613 29.0133 -40.0325 -10.7693 -0.0000 -0.0000 22.0130 42.5956 -27.5648 -23.0476 -7.1250 0.0000 -0.0000 7.0452 -5.1229 -7.7024 -0.0000 -0.0000 0.0000 56.0756 50.1808 -51.5201 -19.0676 29.5026 -5.0641 0.0000 0.0000 140.1160 -52.1081 -61.6224 48.5059 7.1250 -0.0000 -0.0000 164.8161 78.0996 168.2284
-0.2400 17.5330 8.5833 -9.2840 7.2125 8.7550 0.0000 0.0000 0.0000 -11.0243 -36.7251 14.4778 0.0102 -0.6518 -1.7911 -5.1960 38.5777 -30.4995 0.0033 0.3702 1.0172 0.0000 0.0000 0.0000 27.0403 20.2870 2.6404 -0.1118 -2.1560 5.9369 0.1817 -17.1416 -22.5642 -0.0001 0.0641 -0.1761 5.6911 2.5628 1.6904 1.5234 4.1392 -10.4411 -2.0025 1.5692 -11.9275 -8.0037 -12.5836 -7.0803 17.0119 -18.0936 7.7491 5.0029 -8.2634 5.8364 -0.0000 0.0000 0.0000 -88.2206 5.8315 -5.8449 29.4073 -40.3799 -11.0236 -0.0000 -0.0000 19.9500 40.0647 -25.4570 -19.8750 -7.1250 0.0000 -0.0000 6.1135 -1.7424 -6.3323 -0.0000 0.0000 0.0000 55.0253 47.8353 -56.3067 -19.3427 29.8423 -5.2003 0.0000 0.0000 141.0250 -51.6738 -61.4969 48.0278 7.1250 -0.0000 -0.0000 164.3444 78.3411 167.7828
-0.2482 17.5276 8.6055 -9.3719 7.3333 8.7290 0.0000 0.0000 0.0000 -10.8298 -36.6034 14.4281 0.0101 -0.6491 -1.7838 -5.1492 38.4217 -30.3044 0.0010 0.2054 0.5643 0.0000 0.0000 0.0000 27.2570 20.3171 2.7919 -0.1104 -2.1428 5.9004 0.1958 -17.3285 -22.7086 -0.0002 0.0938 -0.2576 5.4334 2.4309 1.5111 1.5470 3.9239 -10.3854 -1.8013 1.4969 -11.7815 -7.9215 -12.5571 -7.1287 17.0904 -18.0273 7.4577 5.0248 -8.2364 5.7472 -0.0000 -0.0000 0.0000 -87.7743 8.1655 -7.1842 29.9885 -40.8836 -11.4021 -0.0000 -0.0000 17.3198 37.0767 -22.4424 -16.0915 -7.1250 0.0000 -0.0000 4.9831 2.6992 -4.7612 -0.0000 -0.0000 0.0000 55.0826 44.8494 -57.9866 -20.1130 30.7783 -5.5891 0.0000 0.0000 140.1630 -51.3543 -60.8978 47.5375 7.1250 -0.0000 -0.0000 164.7668 78.9211 167.9356
-0.2553 17.5203 8.6295 -9.4105 7.2271 8.7291 0.0000 0.0000 0.0000 -10.7866 -36.4249 14.4919 0.0103 -0.6538 -1.7966 -5.1254 38.3809 -30.3565 0.0007 0.1679 0.4612 0.0000 0.0000 0.0000 27.3450 20.2283 2.8411 -0.1096 -2.1350 5.8789 0.1803 -17.2182 -22.6950 -0.0003 0.1057 -0.2905 5.1648 2.3271 1.3500 1.5236 3.7460 -10.3787 -1.6513 1.4376 -11.6968 -7.9028 -12.6121 -7.3705 17.0579 -18.1152 7.5863 4.9834 -8.2614 5.8346 -0.0000 0.0000 0.0000 -87.4301 10.7075 -8.3170 30.6745 -41.4646 -11.8537 -0.0000 -0.0000 13.7817 34.2090 -18.5659 -12.2135 -7.1250 0.0000 -0.0000 3.8858 7.9175 -3.3213 -0.0000 0.0000 0.0000 55.7374 41.6275 -57.9508 -20.7285 31.5100 -5.9074 0.0000 0.0000 138.2820 -51.5767 -59.9822 47.5062 7.1250 -0.0000 -0.0000 166.7165 79.5746 169.3132
-0.2612 17.5131 8.6544 -9.3958 6.9282 8.7432 0.0000 0.0000 0.0000 -10.9183 -36.2516 14.7001 0.0104 -0.6598 -1.8133 -5.1370 38.4790 -30.6335 0.0017 0.2657 0.7300 0.0000 0.0000 0.0000 27.3308 20.0972 2.8425 -0.1097 -2.1360 5.8817 0.1448 -16.9017 -22.5719 -0.0005 0.1444 -0.3968 4.7711 2.2350 0.9302 1.5633 3.5535 -10.2081 -1.3486 1.3974 -11.2733 -8.0613 -12.2014 -6.6673 17.7184 -17.4717 6.5225 5.3510 -8.0118 5.3870 0.0000 -0.0000 0.0000 -87.3791 13.0192 -9.4189 31.4080 -42.0701 -12.3423 -0.0000 -0.0000 9.5096 31.5775 -14.2784 -8.6202 -7.1250 0.0000 -0.0000 2.7581 13.3617 -2.0485 0.0000 -0.0000 0.0000 57.4374 37.2854 -50.3594 -20.9755 31.7998 -6.0370 0.0000 0.0000 128.5050 -53.1261 -61.2278 49.4444 7.1250 -0.0000 -0.0000 166.9681 78.0544 169.9191
-0.2675 17.5090 8.6790 -9.3670 6.5359 8.7328 0.0000 0.0000 0.0000 -11.1958 -36.1846 15.1151 0.0110 -0.6758 -1.8572 -5.1632 38.6929 -31.2192 0.0042 0.4181 1.1488 0.0000 0.0000 0.0000 27.3252 20.0531 2.9059 -0.1113 -2.1509 5.9228 0.0962 -16.5156 -22.4854 -0.0002 0.0940 -0.2583 4.1173 2.0641 0.2473 1.8515 3.2357 -9.8106 -0.6136 1.3407 -10.4644 -8.3726 -11.8866 -6.9172 17.9472 -16.9685 6.2007 5.5203 -7.7677 5.3151 -0.0000 0.0000 0.0000 -87.9291 14.9875 -10.9352 32.0220 -42.5647 -12.7557 -0.0000 -0.0000 4.7355 30.0609 -10.8439 -6.2142 -7.1250 0.0000 -0.0000 2.0802 17.5051 -1.3590 -0.0000 0.0000 0.0000 58.7234 31.3243 -36.2355 -21.4723 32.3755 -6.3009 0.0000 0.0000 112.8290 -58.6792 -63.7451 55.8429 7.1250 -0.0000 -0.0000 168.9735 74.2437 172.3594
-0.2732 17.5058 8.7047 -9.3792 6.0886 8.7148 0.0000 0.0000 0.0000 -11.5088 -36.1800 15.6895 0.0125 -0.7231 -1.9871 -5.2044 38.9947 -31.9939 0.0076 0.5624 1.5454 0.0000 0.0000 0.0000 27.3844 20.0686 3.0050 -0.1130 -2.1676 5.9690 0.0714 -16.2094 -22.2881 -0.0016 0.2553 -0.7014 4.2162 2.1426 0.6090 1.6296 3.3685 -10.1577 -0.9375 1.3675 -11.0575 -8.5308 -11.8554 -6.8255 17.9002 -16.9793 6.6020 5.5286 -7.7670 5.4316 0.0000 -0.0000 0.0000 -87.7046 18.0460 -11.3268 32.5108 -42.9506 -13.0875 -0.0000 0.0000 -0.9590 29.9024 -8.4661 -4.8394 -7.1250 0.0000 -0.0000 2.1679 20.2403 -1.2850 0.0000 -0.0000 0.0000 62.4130 26.8387 -33.8622 -24.5002 35.6888 -7.9965 0.0000 0.0000 110.5610 -58.8223 -62.2992 55.6506 7.1250 -0.0000 -0.0000 171.6417 75.1369 174.0560
